<svg width="420" height="120" viewBox="0 0 420 120" xmlns="http://www.w3.org/2000/svg">
  <rect width="420" height="120" fill="#1b4d3e"/>
  
  <!-- Otter silhouette -->
  <path d="M40 80 C20 60, 20 40, 50 35 C70 30, 110 35, 130 45 
           C150 55, 180 55, 200 50 C220 45, 240 50, 250 60 
           C260 70, 260 85, 240 90 C220 95, 180 95, 150 90 
           C120 85, 80 90, 60 90 C50 90, 45 85, 40 80 Z"
        fill="#d9e6df"/>

  <!-- Otter head -->
  <circle cx="55" cy="55" r="18" fill="#d9e6df"/>
  <circle cx="48" cy="52" r="3" fill="#1b4d3e"/>
  <circle cx="62" cy="52" r="3" fill="#1b4d3e"/>
  <ellipse cx="55" cy="60" rx="6" ry="3" fill="#1b4d3e"/>

  <!-- Text -->
  <text x="150" y="70" font-family="Arial, sans-serif" font-size="36" fill="white" font-weight="bold">
    OtterTrackers
  </text>
  <text x="152" y="95" font-family="Arial, sans-serif" font-size="16" fill="#d9e6df">
    Wildlife Monitoring & Research
  </text>
</svg>
